<svg width="24" height="25" viewBox="0 0 24 25" fill="none" xmlns="http://www.w3.org/2000/svg">
<g clip-path="url(#clip0_203_1189)">
<path d="M24 2.40554V13.4957C23.9897 13.5074 23.9747 13.5173 23.9705 13.5309C23.6597 14.5152 23.0836 14.9394 22.0608 14.9399H14.9297C13.7428 14.9399 13.0125 14.2054 13.0125 13.0119C13.0125 9.63695 13.0125 6.26195 13.0125 2.88695C13.0125 2.81664 13.0125 2.74632 13.0125 2.67648C13.0439 1.70476 13.8056 0.958979 14.7774 0.958042C17.2711 0.955229 19.765 0.955229 22.2591 0.958042C22.6514 0.956575 23.0325 1.08884 23.3395 1.33304C23.6977 1.60632 23.8763 1.98835 24 2.40554Z" fill="white"/>
<path d="M9.59016 24.9135H1.49672C1.47843 24.8993 1.45843 24.8875 1.43719 24.8783C0.51422 24.6187 0.0473454 24.0079 0.0473454 23.0568C0.0473454 19.6349 0.0623453 16.213 0.0370328 12.7912C0.0304703 11.8499 0.734064 10.9194 1.90547 10.926C4.32938 10.9396 6.75328 10.9288 9.17719 10.9307C10.2759 10.9307 11.0302 11.684 11.0334 12.7785C11.0358 13.6049 11.0334 14.4313 11.0334 15.2577C11.0334 17.8615 11.0334 20.4652 11.0334 23.069C11.0334 23.8307 10.7053 24.4012 10.0214 24.7504C9.88091 24.813 9.73692 24.8674 9.59016 24.9135Z" fill="white"/>
<path d="M14.4544 24.9135C14.4075 24.8953 14.3569 24.8728 14.3063 24.8582C13.5497 24.6393 13.0205 23.976 13.0148 23.1862C13.0041 21.6745 13.0013 20.1632 13.0148 18.6515C13.0165 18.1931 13.1995 17.7539 13.524 17.43C13.8485 17.1062 14.288 16.924 14.7464 16.9232C17.2548 16.9117 19.763 16.9117 22.2708 16.9232C23.0719 16.926 23.7314 17.4632 23.9466 18.2357C23.9609 18.2785 23.978 18.3203 23.9977 18.3609V23.4632C23.8678 23.9137 23.6719 24.3295 23.2608 24.5882C23.04 24.7256 22.7859 24.8085 22.5473 24.9163L14.4544 24.9135Z" fill="white"/>
<path d="M5.53734 0.955701C6.76859 0.955701 8.00016 0.955701 9.23203 0.955701C10.2591 0.955701 11.0264 1.7057 11.032 2.73273C11.0395 4.20617 11.0395 5.67976 11.032 7.15351C11.0273 8.17726 10.2638 8.94508 9.24094 8.94742C6.77 8.95367 4.29906 8.95367 1.82812 8.94742C0.802969 8.94742 0.046875 8.17445 0.046875 7.15023C0.046875 5.67679 0.046875 4.2032 0.046875 2.72945C0.046875 1.71461 0.804844 0.957107 1.81828 0.955701C3.05828 0.954138 4.29797 0.954138 5.53734 0.955701Z" fill="white"/>
</g>
<defs>
<clipPath id="clip0_203_1189">
<rect width="24" height="24" fill="white" transform="translate(0 0.913513)"/>
</clipPath>
</defs>
</svg>
