<svg width="24" height="25" viewBox="0 0 24 25" fill="none" xmlns="http://www.w3.org/2000/svg">
<g clip-path="url(#clip0_479_1989)">
<path d="M13.9406 23.9473C13.6808 23.9462 13.4232 23.8998 13.1794 23.8101H13.0903L9.2503 21.9244C8.83368 21.7633 8.47469 21.4814 8.21935 21.1148C7.96401 20.7483 7.82396 20.3139 7.81716 19.8673V14.361C7.81831 14.2867 7.80291 14.213 7.77207 14.1454C7.74124 14.0778 7.69573 14.0179 7.63887 13.9701L1.37144 9.04668C1.11776 8.83806 0.912699 8.57657 0.770572 8.28047C0.628445 7.98437 0.552685 7.66081 0.548584 7.33239V3.11525C0.548584 2.52238 0.784102 1.95379 1.20333 1.53456C1.62255 1.11534 2.19114 0.879822 2.78401 0.879822H21.216C21.8089 0.879822 22.3775 1.11534 22.7967 1.53456C23.2159 1.95379 23.4514 2.52238 23.4514 3.11525V7.33239C23.4524 7.65161 23.3849 7.96732 23.2536 8.25829C23.1223 8.54925 22.9303 8.80873 22.6903 9.01925L16.32 13.9975C16.2267 14.0954 16.175 14.2257 16.176 14.361V21.705C16.1769 21.9991 16.1198 22.2905 16.0078 22.5625C15.8959 22.8345 15.7314 23.0818 15.5237 23.2901C15.316 23.4984 15.0693 23.6637 14.7976 23.7764C14.526 23.8892 14.2347 23.9473 13.9406 23.9473ZM13.7966 22.2124C13.876 22.2388 13.9605 22.2458 14.0432 22.2326C14.1258 22.2195 14.2041 22.1867 14.2713 22.1369C14.3386 22.0871 14.3929 22.0219 14.4296 21.9467C14.4663 21.8715 14.4844 21.7886 14.4823 21.705V14.361C14.4828 14.0423 14.5516 13.7275 14.684 13.4376C14.8165 13.1478 15.0096 12.8898 15.2503 12.681L21.6206 7.69582C21.7114 7.59688 21.7606 7.46668 21.7577 7.33239V3.11525C21.7577 2.97703 21.7028 2.84448 21.6051 2.74675C21.5074 2.64901 21.3748 2.59411 21.2366 2.59411H2.78401C2.6458 2.59411 2.51324 2.64901 2.41551 2.74675C2.31778 2.84448 2.26287 2.97703 2.26287 3.11525V7.33239C2.26257 7.40756 2.27831 7.48192 2.30906 7.5505C2.33981 7.61909 2.38484 7.68032 2.44116 7.73011L8.73601 12.6467C8.98432 12.8582 9.18396 13.1209 9.32125 13.4168C9.45855 13.7127 9.53025 14.0348 9.53144 14.361V19.8055C9.53308 19.9135 9.56736 20.0185 9.62978 20.1066C9.6922 20.1947 9.77984 20.2619 9.88116 20.2993L9.96344 20.3335L13.7966 22.2124Z" fill="#707070"/>
</g>
<defs>
<clipPath id="clip0_479_1989">
<rect width="24" height="24" fill="white" transform="translate(0 0.413513)"/>
</clipPath>
</defs>
</svg>
