<svg width="24" height="25" viewBox="0 0 24 25" fill="none" xmlns="http://www.w3.org/2000/svg">
<g clip-path="url(#clip0_203_1196)">
<path d="M4.81893 24.9136C4.74763 24.8838 4.67588 24.8563 4.60598 24.8237C4.18942 24.6289 3.93221 24.3084 3.92988 23.8452C3.92196 22.1924 3.90053 20.5369 3.94339 18.887C3.96669 17.9723 4.4662 17.2561 5.15162 16.6755C5.92324 16.0232 6.81508 15.684 7.83226 15.6905C8.32292 15.6933 8.81403 15.6905 9.34802 15.6905V15.3177C9.34802 14.8984 9.35268 14.4757 9.34383 14.055C9.34233 13.9655 9.30933 13.8794 9.25063 13.8118C8.33037 12.9041 8.01818 12.3063 7.79173 10.9718C7.67337 10.9718 7.55036 10.9718 7.42735 10.9718C6.74286 10.9666 6.25826 10.5105 6.24102 9.82318C6.22487 9.19165 6.22596 8.56013 6.24429 7.9286C6.24988 7.74222 6.34353 7.56283 6.40644 7.34662C5.95399 6.58012 6.4302 5.67803 7.39892 5.58857C7.39892 5.24563 7.37656 4.89663 7.40498 4.55135C7.43434 4.19769 7.45903 3.82772 7.58158 3.50109C7.97112 2.45967 8.74647 1.87863 9.85312 1.75142C9.93 1.74257 10.0069 1.73465 10.0926 1.72533C10.1131 1.64658 10.1304 1.57203 10.1518 1.49841C10.191 1.34615 10.2797 1.21123 10.4039 1.1149C10.5282 1.01857 10.6809 0.966288 10.8381 0.966286C11.6259 0.962247 12.4135 0.962247 13.201 0.966286C13.598 0.969081 13.8184 1.19367 13.9465 1.7202C14.1134 1.7407 14.2909 1.75002 14.4633 1.78497C15.077 1.90424 15.6301 2.23323 16.0279 2.71558C16.4257 3.19793 16.6433 3.8036 16.6435 4.42881C16.6477 4.80996 16.6435 5.19111 16.6435 5.5937C17.0889 5.63377 17.451 5.8085 17.6625 6.2055C17.8741 6.60249 17.8373 7.00135 17.6593 7.29117C17.718 7.62899 17.7902 7.88107 17.7991 8.13549C17.8191 8.65689 17.8065 9.17969 17.8047 9.7025C17.8019 10.517 17.3424 10.9718 16.5251 10.9727H16.2395C16.137 11.9139 15.7931 12.7321 15.1739 13.4287C15.1378 13.4798 15.0947 13.5254 15.0457 13.5643C14.7046 13.7722 14.6692 14.0885 14.6897 14.4497C14.7126 14.8513 14.6949 15.2553 14.6949 15.6933C14.9693 15.6933 15.2163 15.6877 15.4632 15.6933C16.0778 15.7087 16.7013 15.67 17.3052 15.7599C18.8596 15.9929 20.085 17.4089 20.1093 18.9815C20.134 20.5793 20.1195 22.178 20.1177 23.7767C20.1177 24.3824 19.7668 24.7286 19.224 24.9174L4.81893 24.9136ZM8.5079 7.8834V8.10706C8.5079 8.94112 8.50464 9.77565 8.5079 10.6097C8.51815 12.549 10.0223 14.0806 11.956 14.1267C13.8897 14.1729 15.5154 12.6096 15.5341 10.6689C15.542 9.80361 15.5341 8.93786 15.5341 8.07258C15.5341 8.01247 15.5247 7.95283 15.5187 7.8834H8.5079ZM13.9815 17.8698C13.4223 18.4289 12.7789 18.7146 12.0324 18.7183C11.2771 18.7215 10.6303 18.4294 10.0679 17.8749V24.1998H13.982L13.9815 17.8698ZM15.918 5.58484C15.918 5.13613 15.9348 4.69953 15.911 4.26712C15.8969 4.0425 15.8448 3.82192 15.7568 3.61478C15.4339 2.85015 14.5737 2.34365 13.8464 2.47505C13.8314 2.57896 13.8137 2.68613 13.7998 2.79377C13.7336 3.32682 13.6726 3.86034 13.6022 4.39293C13.5673 4.65712 13.406 4.78713 13.1791 4.75264C12.9694 4.72049 12.8637 4.54716 12.8963 4.29601C12.9648 3.76342 13.0333 3.23083 13.0985 2.69778C13.14 2.36089 13.1754 2.02354 13.2145 1.675H10.8395C10.8461 1.78311 10.847 1.8763 10.8586 1.96762C10.9562 2.74764 11.0548 3.52765 11.1545 4.30766C11.1844 4.54063 11.079 4.71444 10.881 4.75031C10.6606 4.78992 10.4975 4.67203 10.4533 4.42694C10.4225 4.25873 10.4104 4.08726 10.3894 3.91719C10.3284 3.43259 10.2674 2.948 10.2072 2.46993C9.33777 2.36276 8.41284 2.96291 8.21481 3.84543C8.08947 4.40458 8.12162 4.99727 8.08481 5.58484H15.918ZM14.0206 14.3476C13.3529 14.6794 12.7104 14.8425 12.0338 14.8443C11.3498 14.8443 10.7012 14.6761 10.0581 14.3611C10.0581 14.9594 10.0535 15.5181 10.0581 16.0763C10.0684 17.0394 10.8386 17.8963 11.7715 17.9905C12.7966 18.0939 13.7588 17.4779 13.9209 16.5059C14.0346 15.8177 13.9899 15.1029 14.0206 14.3476ZM17.8312 16.6406V24.2128C18.2086 24.2128 18.5665 24.2161 18.9243 24.2128C19.2622 24.2086 19.4197 24.0465 19.4201 23.704C19.4201 22.1757 19.428 20.6473 19.4173 19.1195C19.4103 18.2122 19.0231 17.4826 18.3028 16.9337C18.1625 16.8274 18.0046 16.7482 17.8289 16.6406H17.8312ZM6.22891 16.8125C5.83202 17.0097 5.48236 17.2902 5.20381 17.6349C4.82678 18.0783 4.62258 18.6428 4.62882 19.2248C4.63627 20.7135 4.62882 22.2027 4.63161 23.6919C4.63161 23.9831 4.74204 24.1798 4.97642 24.1942C5.39205 24.2203 5.81095 24.2017 6.22844 24.2017L6.22891 16.8125ZM17.0903 20.3212C17.0903 19.0505 17.0903 17.805 17.0903 16.5586C17.0903 16.4057 16.993 16.4006 16.8891 16.3997C16.4902 16.395 16.0932 16.395 15.6981 16.395C15.3719 16.395 15.049 16.395 14.7168 16.395V20.3207L17.0903 20.3212ZM9.3373 16.388C8.53353 16.4388 7.74606 16.3023 6.9791 16.5008V20.3165H9.3373V16.388ZM12.0207 6.32012H7.58111C7.48775 6.31739 7.39432 6.32144 7.30154 6.33224C7.20591 6.3488 7.11925 6.39876 7.05699 6.47322C6.99472 6.54767 6.96089 6.6418 6.9615 6.73886C6.96212 6.83591 6.99714 6.92961 7.06034 7.00327C7.12355 7.07693 7.21083 7.12578 7.30667 7.14114C7.39178 7.15008 7.4774 7.15319 7.56294 7.15045H16.4902C16.5758 7.15453 16.6615 7.1511 16.7465 7.1402C16.9575 7.10339 17.0726 6.97199 17.0848 6.75719C17.0987 6.47016 16.9203 6.32105 16.5554 6.32059C15.0439 6.31965 13.5323 6.3195 12.0207 6.32012ZM6.97024 24.1998H9.32891V22.609H6.97024V24.1998ZM17.0768 24.1998V22.6123H14.7116V24.1998H17.0768ZM9.33357 21.8672V21.0546H6.97257V21.8658L9.33357 21.8672ZM17.0759 21.0546H14.7121V21.8644H17.0759V21.0546ZM7.77355 10.2486V7.89179H6.96279C6.96279 8.56323 6.9586 9.21604 6.96512 9.86884C6.96512 10.0855 7.10491 10.2141 7.31226 10.2444C7.45577 10.2658 7.60534 10.2486 7.77355 10.2486ZM16.2665 10.2616H16.5484C16.9445 10.257 17.0852 10.1195 17.0875 9.72999C17.0875 9.45787 17.0875 9.18575 17.0875 8.91317V7.88806H16.2665V10.2616Z" fill="#707070"/>
<path d="M12.0207 11.7387C11.5967 11.7201 11.2831 11.5449 11.0674 11.2061C10.949 11.0197 10.9858 10.8273 11.1489 10.7117C11.3036 10.6027 11.4872 10.6297 11.6289 10.7821C11.9462 11.1246 12.0948 11.1237 12.421 10.7784C12.5608 10.6283 12.75 10.6036 12.9019 10.7145C12.9391 10.7399 12.9709 10.7725 12.9955 10.8102C13.0201 10.848 13.0369 10.8903 13.045 10.9346C13.0532 10.9789 13.0525 11.0244 13.0429 11.0685C13.0334 11.1125 13.0152 11.1542 12.9895 11.1912C12.8914 11.3605 12.7499 11.5005 12.5796 11.5967C12.4093 11.693 12.2163 11.742 12.0207 11.7387Z" fill="#707070"/>
<path d="M10.833 9.26584C10.8298 9.33573 10.833 9.40562 10.8218 9.47505C10.7944 9.66936 10.6821 9.78538 10.4845 9.79749C10.2981 9.80868 10.1448 9.67774 10.1201 9.47692C10.1083 9.35301 10.1064 9.22836 10.1145 9.10415C10.1238 8.86745 10.2585 8.71881 10.4603 8.71228C10.6769 8.70529 10.8125 8.84741 10.8288 9.10275C10.8326 9.15727 10.8288 9.21179 10.8288 9.2663L10.833 9.26584Z" fill="#707070"/>
<path d="M13.9316 9.26582C13.9354 9.3279 13.9354 9.39013 13.9316 9.45221C13.9083 9.66701 13.762 9.80959 13.5668 9.79981C13.3543 9.78909 13.2406 9.66235 13.2243 9.45826C13.2129 9.32649 13.2129 9.19397 13.2243 9.0622C13.2434 8.83761 13.3827 8.70574 13.5845 8.71506C13.7979 8.72485 13.9037 8.85485 13.9316 9.05568C13.9366 9.12564 13.9366 9.19586 13.9316 9.26582Z" fill="#707070"/>
<path d="M12.3842 3.44882C12.3842 3.48004 12.3842 3.51126 12.3842 3.54201C12.3767 3.82158 12.2332 3.99678 12.017 3.99212C11.8008 3.98747 11.6708 3.82112 11.6634 3.55273C11.6581 3.45148 11.6593 3.35001 11.6671 3.24892C11.689 3.03645 11.8451 2.87942 12.0296 2.89387C12.2356 2.91017 12.3525 3.03365 12.3786 3.23867C12.3833 3.30849 12.3833 3.37854 12.3786 3.44835L12.3842 3.44882Z" fill="#707070"/>
</g>
<defs>
<clipPath id="clip0_203_1196">
<rect width="24" height="24" fill="white" transform="translate(0 0.913574)"/>
</clipPath>
</defs>
</svg>
