<svg width="24" height="25" viewBox="0 0 24 25" fill="none" xmlns="http://www.w3.org/2000/svg">
<g clip-path="url(#clip0_203_1148)">
<path d="M0 8.86653C0.0476087 8.73561 0.088076 8.60231 0.142826 8.47424C0.467517 7.70488 1.11547 7.39352 1.88483 7.28402C2.23047 7.23641 2.5842 7.23641 2.93222 7.23261C3.85202 7.22594 4.77182 7.2326 5.69352 7.22927C6.53619 7.22356 7.28889 7.50493 7.88828 8.06718C8.9728 9.08553 10.015 10.152 11.0676 11.207C11.2059 11.3428 11.2848 11.5279 11.2868 11.7217C11.2889 11.9156 11.214 12.1023 11.0785 12.241C10.7967 12.5372 10.3506 12.5614 10.0283 12.2725C9.07612 11.4198 8.12394 10.5662 7.18938 9.6935C6.97038 9.48878 6.75472 9.42356 6.44669 9.48545V9.77634C6.44669 13.6821 6.44669 17.5881 6.44669 21.4943C6.44669 22.1289 6.14628 22.535 5.60211 22.6411C5.07842 22.744 4.52901 22.3607 4.44998 21.8318C4.42745 21.6778 4.41631 21.5223 4.41666 21.3667C4.41412 19.0123 4.41412 16.6578 4.41666 14.3034V13.9854H3.97389V14.2487C3.97389 16.6967 3.97389 19.1448 3.97389 21.5928C3.97389 22.136 3.66253 22.5278 3.15598 22.6402C2.59658 22.763 2.01718 22.3403 1.96576 21.7699C1.95481 21.6461 1.95434 21.5209 1.95434 21.3962C1.95624 17.5215 1.95878 13.6466 1.96195 9.77157V9.48592H1.49824V9.73634C1.49824 10.9678 1.49824 12.1996 1.49824 13.4317C1.49824 13.8892 1.29496 14.1711 0.903136 14.263C0.542263 14.3482 0.236615 14.1716 0.0371349 13.7617C0.0314218 13.7498 0.0147587 13.7426 0.00285658 13.7336L0 8.86653Z" fill="#707070"/>
<path d="M7.94638 14.4525L6.75616 14.3811V12.6434C7.17655 12.7767 7.57218 12.8976 7.96304 13.0328C8.00494 13.0471 8.03398 13.1418 8.04207 13.2028C8.08968 13.5793 8.13301 13.9569 8.17728 14.3339L8.2487 14.3549C8.29202 14.2697 8.35343 14.1892 8.37533 14.0988C8.52911 13.4575 8.67479 12.8133 8.82333 12.1687C9.20849 12.3677 9.25181 12.4629 9.15326 12.8543C9.06756 13.1923 8.98235 13.5308 8.89284 13.884H20.4218C20.3827 13.7174 20.348 13.5627 20.3094 13.408C20.1232 12.6615 19.949 11.9116 19.7452 11.1703C19.4943 10.2558 18.8207 9.75304 17.8756 9.75209C15.5214 9.74923 13.1671 9.74066 10.8129 9.76113C10.4258 9.76446 10.1864 9.62592 9.98832 9.30266C10.064 9.2979 10.1311 9.29028 10.1949 9.29028C12.7128 9.29028 15.2308 9.29028 17.749 9.29028C19.0159 9.29028 19.9909 10.0473 20.2942 11.2798C20.526 12.2235 20.7331 13.1728 20.9569 14.1183C20.9764 14.2016 21.0378 14.2749 21.0802 14.353L21.1468 14.3306C21.1944 13.9464 21.2363 13.5622 21.2897 13.179C21.2978 13.1218 21.3401 13.0385 21.3849 13.0228C22.0343 12.8028 22.6875 12.5905 23.3873 12.6519C23.762 12.6848 23.8853 12.8071 23.9138 13.1756C23.9381 13.4856 23.9386 13.7974 23.9438 14.1088C23.9467 14.2678 23.8729 14.332 23.701 14.3378C22.9693 14.363 22.238 14.4049 21.5063 14.4415C21.4625 14.4415 21.4192 14.4544 21.352 14.4644C21.3713 14.4962 21.394 14.5259 21.4196 14.5529C21.9362 14.9457 22.119 15.4718 22.0966 16.1093C22.0714 16.8101 22.0785 17.5128 22.0938 18.2141C22.1114 19.0234 21.7048 19.5514 21.0173 19.8942C20.8669 19.9694 20.814 20.0465 20.8188 20.2089C20.8302 20.575 20.8226 20.9416 20.8226 21.3081C20.8226 21.938 20.5955 22.2689 19.9933 22.4712C19.3744 22.6783 18.7654 22.6521 18.1841 22.3341C17.8214 22.1346 17.6295 21.828 17.6405 21.3995C17.6505 20.9892 17.6405 20.5783 17.6405 20.1565H11.4104V20.6107C11.4104 20.8525 11.3975 21.0949 11.4128 21.3358C11.4451 21.8466 11.2095 22.196 10.7601 22.3898C10.0116 22.7121 9.27561 22.6993 8.591 22.2098C8.34153 22.0318 8.22442 21.7814 8.23108 21.4652C8.24155 20.9892 8.24028 20.5131 8.22727 20.037C8.22301 19.9874 8.20855 19.9392 8.18479 19.8955C8.16103 19.8517 8.12849 19.8133 8.08921 19.7828C7.5179 19.4019 7.21749 18.8953 7.23225 18.1979C7.24653 17.4575 7.24225 16.7168 7.23225 15.9764C7.22559 15.4094 7.41793 14.9419 7.86926 14.5896C7.90699 14.5627 7.94608 14.5378 7.98637 14.5149L7.94638 14.4525ZM18.0661 16.5349V17.8403H20.8878V16.5349H18.0661ZM8.83857 16.5349V17.8451H11.6475V16.5354L8.83857 16.5349ZM17.4443 16.5792H12.2811V17.1281H17.4472L17.4443 16.5792ZM12.2712 17.847H17.4405V17.3004H12.2712V17.847Z" fill="#707070"/>
<path d="M6.08056 4.91121C6.07391 5.38004 5.88241 5.82728 5.54771 6.15565C5.21302 6.48401 4.7622 6.66694 4.29333 6.66463C3.32592 6.65368 2.51229 5.82529 2.53609 4.8755C2.56037 3.9 3.37734 3.0997 4.32856 3.11874C4.79754 3.12737 5.24427 3.32026 5.57213 3.6557C5.9 3.99114 6.08264 4.44216 6.08056 4.91121Z" fill="#707070"/>
</g>
<defs>
<clipPath id="clip0_203_1148">
<rect width="24" height="24" fill="white" transform="translate(0 0.913513)"/>
</clipPath>
</defs>
</svg>
