<svg width="24" height="25" viewBox="0 0 24 25" fill="none" xmlns="http://www.w3.org/2000/svg">
<path d="M14.079 2.41357C14.2378 2.41358 14.3925 2.46398 14.5208 2.55752C14.6491 2.65106 14.7444 2.7829 14.793 2.93407L15.618 5.49757C15.9645 5.66707 16.296 5.85757 16.6125 6.07207L19.2465 5.50507C19.4018 5.47192 19.5636 5.48891 19.7086 5.55361C19.8537 5.6183 19.9744 5.72736 20.0535 5.86507L22.1325 9.46357C22.2119 9.60121 22.2455 9.7605 22.2285 9.91848C22.2115 10.0765 22.1448 10.225 22.038 10.3426L20.2305 12.3376C20.2568 12.7201 20.2568 13.104 20.2305 13.4866L22.038 15.4846C22.1448 15.6022 22.2115 15.7507 22.2285 15.9087C22.2455 16.0666 22.2119 16.2259 22.1325 16.3636L20.0535 19.9636C19.9742 20.101 19.8533 20.2098 19.7083 20.2742C19.5633 20.3386 19.4016 20.3554 19.2465 20.3221L16.6125 19.7551C16.2975 19.9681 15.9645 20.1601 15.6195 20.3296L14.793 22.8931C14.7444 23.0442 14.6491 23.1761 14.5208 23.2696C14.3925 23.3632 14.2378 23.4136 14.079 23.4136H9.92098C9.76219 23.4136 9.6075 23.3632 9.47919 23.2696C9.35088 23.1761 9.25557 23.0442 9.20698 22.8931L8.38348 20.3311C8.03791 20.1621 7.70459 19.9691 7.38598 19.7536L4.75348 20.3221C4.59818 20.3552 4.43636 20.3382 4.29133 20.2735C4.1463 20.2088 4.02556 20.0998 3.94648 19.9621L1.86748 16.3636C1.78809 16.2259 1.75446 16.0666 1.77145 15.9087C1.78843 15.7507 1.85515 15.6022 1.96198 15.4846L3.76948 13.4866C3.7433 13.105 3.7433 12.7221 3.76948 12.3406L1.96198 10.3426C1.85515 10.225 1.78843 10.0765 1.77145 9.91848C1.75446 9.7605 1.78809 9.60121 1.86748 9.46357L3.94648 5.86357C4.02577 5.72613 4.14662 5.61739 4.29163 5.55297C4.43663 5.48855 4.59834 5.47178 4.75348 5.50507L7.38598 6.07357C7.70398 5.85907 8.03698 5.66557 8.38348 5.49607L9.20848 2.93407C9.25691 2.78339 9.35177 2.65189 9.47948 2.5584C9.60719 2.46491 9.76121 2.41421 9.91948 2.41357H14.0775H14.079ZM13.53 3.91357H10.47L9.61798 6.56407L9.04348 6.84457C8.76106 6.98278 8.48842 7.14015 8.22748 7.31557L7.69648 7.67557L4.97248 7.08757L3.44248 9.73957L5.30998 11.8066L5.26498 12.4426C5.24343 12.7562 5.24343 13.0709 5.26498 13.3846L5.30998 14.0206L3.43948 16.0876L4.97098 18.7396L7.69498 18.1531L8.22598 18.5116C8.48692 18.687 8.75956 18.8444 9.04198 18.9826L9.61648 19.2631L10.47 21.9136H13.533L14.388 19.2616L14.961 18.9826C15.2431 18.8447 15.5153 18.6873 15.7755 18.5116L16.305 18.1531L19.0305 18.7396L20.5605 16.0876L18.6915 14.0206L18.7365 13.3846C18.7581 13.0704 18.7581 12.7552 18.7365 12.4411L18.6915 11.8051L20.562 9.73957L19.0305 7.08757L16.305 7.67257L15.7755 7.31557C15.5153 7.1398 15.2431 6.98241 14.961 6.84457L14.388 6.56557L13.5315 3.91357H13.53ZM12 8.41357C13.1935 8.41357 14.338 8.88768 15.182 9.73159C16.0259 10.5755 16.5 11.7201 16.5 12.9136C16.5 14.107 16.0259 15.2516 15.182 16.0956C14.338 16.9395 13.1935 17.4136 12 17.4136C10.8065 17.4136 9.66191 16.9395 8.818 16.0956C7.97409 15.2516 7.49998 14.107 7.49998 12.9136C7.49998 11.7201 7.97409 10.5755 8.818 9.73159C9.66191 8.88768 10.8065 8.41357 12 8.41357ZM12 9.91357C11.2043 9.91357 10.4413 10.2296 9.87866 10.7923C9.31605 11.3549 8.99998 12.1179 8.99998 12.9136C8.99998 13.7092 9.31605 14.4723 9.87866 15.0349C10.4413 15.5975 11.2043 15.9136 12 15.9136C12.7956 15.9136 13.5587 15.5975 14.1213 15.0349C14.6839 14.4723 15 13.7092 15 12.9136C15 12.1179 14.6839 11.3549 14.1213 10.7923C13.5587 10.2296 12.7956 9.91357 12 9.91357Z" fill="#707070"/>
</svg>
